<?xml version="1.0" encoding="iso-8859-1"?>
<!-- Uploaded to: SVG Repo, www.svgrepo.com, Generator: SVG Repo Mixer Tools -->
<svg height="800px" width="800px" version="1.1" id="Layer_1" xmlns="http://www.w3.org/2000/svg" xmlns:xlink="http://www.w3.org/1999/xlink" 
	 viewBox="0 0 511.999 511.999" xml:space="preserve">
<path style="fill:#EDEDED;" d="M467.478,489.773H66.782c-24.588,0-44.522-19.933-44.522-44.522V45.277
	c0-12.295,9.966-22.261,22.261-22.261h422.957c12.295,0,22.261,9.966,22.261,22.261v422.235
	C489.739,479.807,479.773,489.773,467.478,489.773z"/>
<path style="fill:#777777;" d="M509.554,487.331l-22.261,22.226c-1.631,1.627-3.768,2.441-5.904,2.441s-4.273-0.814-5.904-2.441
	c-3.26-3.255-3.26-8.533,0-11.787l8.011-7.998H52.869c-16.877,0-30.609-13.709-30.609-30.562V29.247l-8.009,7.997
	c-3.261,3.255-8.546,3.255-11.806,0c-3.26-3.255-3.26-8.533,0-11.787L24.706,3.23c3.261-3.255,8.546-3.255,11.806,0l22.261,22.226
	c3.26,3.255,3.26,8.533,0,11.787c-1.631,1.627-3.768,2.441-5.904,2.441s-4.273-0.814-5.904-2.441l-8.009-7.997v429.965
	c0,7.66,6.241,13.892,13.913,13.892h430.629l-8.011-7.998c-3.26-3.255-3.26-8.533,0-11.787c3.261-3.255,8.546-3.255,11.806,0
	l22.261,22.226C512.814,478.799,512.814,484.076,509.554,487.331z"/>
<path style="fill:#73A4BC;" d="M236.329,153.12c-2.087,2.084-4.919,3.255-7.87,3.255h-11.922v255.605
	c0,12.276-9.966,22.226-22.261,22.226h-44.522c-12.295,0-22.261-9.952-22.261-22.226V156.375h-11.922
	c-2.952,0-5.783-1.171-7.87-3.255c-4.346-4.34-4.346-11.376,0-15.716l56.444-56.356c4.346-4.34,11.394-4.34,15.741,0l56.444,56.356
	C240.675,141.743,240.675,148.78,236.329,153.12z"/>
<path style="fill:#92B703;" d="M404.077,75.327c-2.087,2.084-4.919,3.255-7.87,3.255h-11.922v333.398
	c0,12.276-9.966,22.226-22.261,22.226h-44.522c-12.295,0-22.261-9.952-22.261-22.226V78.582h-11.922
	c-2.952,0-5.783-1.171-7.87-3.255c-4.346-4.34-4.346-11.376,0-15.716l56.444-56.356c4.346-4.34,11.394-4.34,15.741,0l56.444,56.356
	C408.423,63.95,408.423,70.987,404.077,75.327z"/>
</svg>